<svg id="armn" version="1.1"
    xmlns="http://www.w3.org/2000/svg"
    xmlns:xlink="http://www.w3.org/1999/xlink" x="0px" y="0px" viewBox="0 0 300 364.3" style="enable-background:new 0 0 300 364.3;" xml:space="preserve">
    <style type="text/css">
        .st0 {
            fill: #611C35;
        }
        
        .st1 {
            fill: #FFA630;
        }
        
        .st2 {
            fill: #D7E8BA;
        }
        
        .st3 {
            fill: #4DA1A9;
        }
        
        .st4 {
            fill: #2E5077;
        }
        
        .st5 {
            fill: #FFD7A3;
        }
        
        .st6 {
            fill: #FDC88E;
        }
        
        .st7 {
            fill: #FFE1B2;
        }
        
        .st8 {
            fill: #170E00;
        }
        
        .st9 {
            fill: #2C2F30;
        }
        
        .st10 {
            fill: #10171E;
        }
        
        .st11 {
            fill: #1F2D3D;
        }
        
        .st12 {
            fill: #2D3C51;
        }
    </style>
    <g>
        <path class="st5" d="M76.3,263.4C91,253,89.4,221.9,89.4,214.6h118.4c0,7.3-1.8,38.3,12.9,48.8l-72.1,89L76.3,263.4z"></path>
    </g>
    <g>
        <path class="st6" d="M194,292.3l26.3-31.8c-14.8-10.7-13-42.6-13-50.1H87.9C96.4,238,153.1,285.5,194,292.3z"></path>
    </g>
    <g>
        <path class="st7" d="M58.1,92c-1.6,9.3-1.7,20.5-1.7,33.8c0,52.7,30.3,118.4,92.1,118.4s92.1-65.8,92.1-118.4            c0-13.3-0.1-24.5-1.7-33.8c-24.8-8.1-56.2-13-90.5-13S82.9,83.9,58.1,92z"></path>
    </g>
    <g>
        <path class="st7" d="M59.5,137.3c-9.9-2.5-16.3,2.8-16.3,13.2c0,13.7,13.3,47.3,27.2,26.3C84.4,155.9,59.5,137.3,59.5,137.3z"></path>
    </g>
    <g>
        <path class="st7" d="M235.9,137.3c10.8-2.5,17.8,2.8,17.8,13.2c0,13.7-14.5,47.3-29.7,26.3C208.8,155.9,235.9,137.3,235.9,137.3z"></path>
    </g>
    <g>
        <g>
            <g>
                <path class="st8" d="M133.9,132.9v4.9c0,14.5-11.8,26.3-26.3,26.3H101c-7.3,0-13.2-5.9-13.2-13.2v-18.1L133.9,132.9 M133.9,126.3                H87.8c-3.6,0-6.6,2.9-6.6,6.6V151c0,10.9,8.8,19.7,19.7,19.7h6.6c18.2,0,32.9-14.7,32.9-32.9v-4.9                C140.5,129.3,137.6,126.3,133.9,126.3L133.9,126.3z"></path>
            </g>
        </g>
        <g>
            <g>
                <path class="st8" d="M209.5,132.9V151c0,7.3-5.9,13.2-13.2,13.2h-6.6c-14.5,0-26.3-11.8-26.3-26.3V133L209.5,132.9 M209.5,126.3                h-46.1c-3.6,0-6.6,2.9-6.6,6.6v4.9c0,18.2,14.7,32.9,32.9,32.9h6.6c10.9,0,19.7-8.8,19.7-19.7v-18.1                C216,129.3,213.1,126.3,209.5,126.3L209.5,126.3z"></path>
            </g>
        </g>
        <g>
            <g>
                <polygon class="st8" points="63,126.3 87.9,126.3 87.9,142 63,134.4 			"></polygon>
            </g>
        </g>
        <g>
            <g>
                <polygon class="st8" points="234.1,126.3 209.5,126.3 209.5,142 234.1,134.4 			"></polygon>
            </g>
        </g>
        <g>
            <g>
                <path class="st8" d="M163.7,142h-6.6c0-2.8-3.9-5.3-8.4-5.3s-8.5,2.5-8.5,5.3h-6.6c0-6.7,6.6-11.9,15-11.9                C157.1,130,163.7,135.3,163.7,142z"></path>
            </g>
        </g>
    </g>
    <g>
        <path class="st9" d="M300,367.3v-27.4c0-28.2-19.8-58.3-44-66.9l-36.1-12.8c-19.4,16.5-47.2,39-69.9,39s-50.5-22.5-69.9-39            L44,272.9C19.8,281.5,0,311.8,0,340v24.9h61.7H300"></path>
    </g>
    <g>
        <path class="st10" d="M55.4,117c0,6.4,0.5,13.1,1.4,19.8l11.8,6.6c0,0,7-49.7,13.2-66.5l0,0c-8.7,1.8-17,4-24.6,6.5            C55.5,92.6,55.4,103.7,55.4,117z"></path>
    </g>
    <g>
        <path class="st10" d="M241.7,117c0,6.4-0.5,13.1-1.4,19.8l-11.8,6.6c0,0-7-49.7-13.2-66.5l0,0c8.7,1.8,17,4,24.6,6.5            C241.6,92.6,241.7,103.7,241.7,117z"></path>
    </g>
    <g>
        <path class="st11" d="M217.1,19.6L166.9,3C155-1,142-1,130.1,3L79.9,19.6C63.6,25,52.6,50.3,52.6,66.4v34h191.7v-34            C244.4,50.3,233.5,25,217.1,19.6z"></path>
    </g>
    <g>
        <path class="st12" d="M148.6,69.5c-40,0-99.8,14.7-99.8,32.9h199.6C248.4,84.2,188.5,69.5,148.6,69.5z"></path>
    </g>
</svg>